<svg xmlns="http://www.w3.org/2000/svg" width="16.624" height="16" viewBox="0 0 16.624 16">
  <g id="icon" transform="translate(-144 -746)">
    <path id="Vector" d="M6.316,7.384a.616.616,0,1,0,0,1.232H11.2V12.44A3.594,3.594,0,0,1,7.578,16H3.614A3.586,3.586,0,0,1,0,12.448V3.56A3.594,3.594,0,0,1,3.622,0H7.594A3.584,3.584,0,0,1,11.2,3.552V7.384ZM14.1,5.232,16.44,7.56a.611.611,0,0,1,.184.44.593.593,0,0,1-.184.432L14.1,10.76a.617.617,0,1,1-.872-.872l1.28-1.272H11.2V7.384h3.312l-1.28-1.272a.618.618,0,0,1,0-.872A.611.611,0,0,1,14.1,5.232Z" transform="translate(144 746)" fill="#fff"/>
  </g>
</svg>
