<svg xmlns="http://www.w3.org/2000/svg" width="16.114" height="16" viewBox="0 0 16.114 16">
  <path id="Vector" d="M0,8.81H4.435A14.494,14.494,0,0,0,6.8,16,8.1,8.1,0,0,1,0,8.81ZM0,7.19A8.1,8.1,0,0,1,6.8,0,14.494,14.494,0,0,0,4.435,7.19Zm16.113,0H11.679A14.494,14.494,0,0,0,9.31,0a8.1,8.1,0,0,1,6.8,7.19Zm0,1.619A8.1,8.1,0,0,1,9.31,16a14.494,14.494,0,0,0,2.368-7.19h4.435Zm-10.057,0h4a12.881,12.881,0,0,1-2,6.147,12.881,12.881,0,0,1-2-6.147Zm0-1.619a12.881,12.881,0,0,1,2-6.147,12.881,12.881,0,0,1,2,6.147Z"/>
</svg>
